<svg aria-hidden="true" style="position: absolute; width: 0; height: 0; overflow: hidden;" version="1.1" xmlns="http://www.w3.org/2000/svg" xmlns:xlink="http://www.w3.org/1999/xlink">
<defs>
<symbol id="icon-Heart" viewBox="0 0 36 32">
<path d="M26.553 0c-1.708 0.027-3.379 0.503-4.844 1.382s-2.672 2.129-3.499 3.623c-0.827-1.495-2.034-2.744-3.499-3.623s-3.136-1.356-4.844-1.382c-2.723 0.118-5.288 1.309-7.136 3.313s-2.827 4.657-2.724 7.381c0 6.897 7.26 14.43 13.348 19.537 1.359 1.142 3.078 1.769 4.854 1.769s3.494-0.626 4.854-1.769c6.089-5.107 13.348-12.64 13.348-19.537 0.103-2.723-0.877-5.377-2.724-7.381s-4.413-3.195-7.136-3.313zM21.115 27.91c-0.813 0.685-1.842 1.060-2.905 1.060s-2.092-0.375-2.905-1.060c-7.794-6.539-12.264-12.813-12.264-17.216-0.104-1.919 0.556-3.802 1.834-5.237s3.073-2.306 4.992-2.424c1.918 0.117 3.713 0.988 4.991 2.424s1.938 3.317 1.834 5.237c0 0.402 0.16 0.788 0.444 1.073s0.67 0.444 1.073 0.444c0.402 0 0.788-0.16 1.073-0.444s0.444-0.67 0.444-1.073c-0.104-1.919 0.556-3.802 1.834-5.237s3.073-2.306 4.992-2.424c1.918 0.117 3.713 0.988 4.991 2.424s1.938 3.317 1.834 5.237c0 4.404-4.47 10.677-12.264 17.21v0.006z"></path>
</symbol>
<symbol id="icon-Soping-trash" viewBox="0 0 32 32">
<linearGradient id="gradient" x1="0%" y1="0%" x2="100%" y2="0%">
      <stop offset="0%" style="stop-color:rgb(94, 57, 40); stop-opacity:1" />
      <stop offset="100%" style="stop-color:rgb(228, 161, 111); stop-opacity:1" />
    </linearGradient>
<path d="M30.284 5.436c-0.375-0.45-0.845-0.812-1.375-1.060s-1.11-0.376-1.696-0.376h-21.557l-0.056-0.468c-0.115-0.973-0.582-1.87-1.314-2.521s-1.677-1.011-2.657-1.011h-0.296c-0.354 0-0.693 0.14-0.943 0.391s-0.391 0.589-0.391 0.943 0.141 0.693 0.391 0.943c0.25 0.25 0.589 0.391 0.943 0.391h0.296c0.327 0 0.642 0.12 0.886 0.337s0.4 0.516 0.438 0.84l1.835 15.6c0.191 1.622 0.97 3.118 2.191 4.204s2.797 1.685 4.431 1.685h13.924c0.354 0 0.693-0.141 0.943-0.39s0.391-0.589 0.391-0.943-0.141-0.693-0.391-0.943c-0.25-0.25-0.589-0.39-0.943-0.39h-13.924c-0.825-0.002-1.63-0.26-2.303-0.737s-1.182-1.151-1.457-1.929h15.893c1.563 0 3.076-0.549 4.276-1.551s2.008-2.394 2.285-3.933l1.047-5.805c0.105-0.576 0.081-1.168-0.069-1.734s-0.422-1.092-0.798-1.541zM28.533 8.237l-1.048 5.805c-0.167 0.924-0.653 1.76-1.373 2.362s-1.63 0.93-2.569 0.929h-16.317l-1.255-10.667h21.243c0.196-0.001 0.39 0.041 0.567 0.123s0.335 0.202 0.461 0.352 0.218 0.326 0.268 0.515c0.050 0.189 0.058 0.387 0.024 0.58z"></path>
<path d="M12 29.333c0 1.473-1.194 2.667-2.667 2.667s-2.667-1.194-2.667-2.667c0-1.473 1.194-2.667 2.667-2.667s2.667 1.194 2.667 2.667z"></path>
<path d="M25.333 29.333c0 1.473-1.194 2.667-2.666 2.667s-2.667-1.194-2.667-2.667c0-1.473 1.194-2.667 2.667-2.667s2.666 1.194 2.666 2.667z"></path>
</symbol>
<symbol id="icon-User" viewBox="0 0 32 32">
<path d="M16 16c1.582 0 3.129-0.469 4.444-1.348s2.341-2.128 2.947-3.59c0.605-1.462 0.764-3.070 0.455-4.622s-1.070-2.977-2.189-4.096-2.544-1.881-4.096-2.189c-1.552-0.309-3.16-0.15-4.622 0.455s-2.711 1.631-3.59 2.946c-0.879 1.316-1.348 2.862-1.348 4.445 0.002 2.121 0.846 4.155 2.345 5.655s3.534 2.343 5.655 2.346zM16 2.667c1.055 0 2.086 0.313 2.963 0.899s1.561 1.419 1.964 2.394 0.509 2.047 0.303 3.081c-0.206 1.035-0.714 1.985-1.46 2.731s-1.696 1.254-2.731 1.46c-1.035 0.206-2.107 0.1-3.082-0.303s-1.807-1.087-2.393-1.964c-0.586-0.877-0.899-1.908-0.899-2.963 0-1.415 0.562-2.771 1.562-3.771s2.357-1.562 3.771-1.562z"></path>
<path d="M16 18.667c-3.182 0.004-6.232 1.269-8.481 3.519s-3.515 5.3-3.519 8.481c0 0.354 0.141 0.693 0.391 0.943s0.589 0.39 0.943 0.39 0.693-0.14 0.943-0.39c0.25-0.25 0.391-0.589 0.391-0.943 0-2.475 0.983-4.849 2.734-6.6s4.124-2.734 6.6-2.734 4.849 0.983 6.6 2.734c1.75 1.75 2.734 4.124 2.734 6.6 0 0.354 0.14 0.693 0.39 0.943s0.589 0.39 0.943 0.39 0.693-0.14 0.943-0.39c0.25-0.25 0.39-0.589 0.39-0.943-0.004-3.182-1.269-6.232-3.519-8.481s-5.3-3.515-8.481-3.519z"></path>
</symbol>
<symbol id="icon-left" viewBox="0 0 20 32">
<path d="M20.396 27.604l-11.604-11.604 11.604-11.604-4.396-4.396-16 16 16 16 4.396-4.396z"></path>
</symbol>
</defs>
</svg>
